<svg width="22" height="22" viewBox="0 0 22 22" fill="none" xmlns="http://www.w3.org/2000/svg">
<path d="M10.1325 9.22454C8.10433 8.25708 5.60699 8.60743 3.92921 10.2852C1.79825 12.4162 1.79825 15.8681 3.92921 17.9991C6.06018 20.1301 9.51215 20.1301 11.6431 17.9991C13.3209 16.3213 13.6712 13.824 12.7038 11.7959L15.5001 8.99957L18.0713 11.5709L20.6426 8.99957L18.0713 6.42828L19.357 5.14262L16.7857 2.5713L10.1325 9.22454ZM9.07179 15.4278C8.36148 16.1381 7.21081 16.1381 6.50047 15.4278C5.79013 14.7174 5.79019 13.5668 6.5005 12.8565C7.21081 12.1462 8.36148 12.1461 9.07182 12.8565C9.78216 13.5668 9.7821 14.7175 9.07179 15.4278Z" fill="#FF4081"/>
</svg>
