<svg width="20" height="20" viewBox="0 0 20 20" fill="none" xmlns="http://www.w3.org/2000/svg">
<path d="M10 7.14209L19.02 15.1634C19.6009 15.6335 19.9568 16.3317 19.9964 17.0785C20.0353 17.8236 19.755 18.5538 19.2266 19.0821C18.7004 19.6084 17.9698 19.8876 17.2222 19.8479C16.4746 19.809 15.7772 19.4539 15.3079 18.8746L7.43347 9.7087L10 7.14209Z" fill="#FF4081"/>
<path d="M0.171378 9.14009L0.999935 8.31161C1.22873 8.08282 1.59962 8.08282 1.82841 8.31161L5.14237 11.6256C5.37116 11.8544 5.37116 12.2253 5.14237 12.454L4.31389 13.2825C4.08506 13.5113 3.71413 13.5113 3.48534 13.2825L0.171378 9.96857C-0.0574119 9.73982 -0.0574119 9.36888 0.171378 9.14009Z" fill="#FF4081"/>
<path d="M5 12.6421L0.5 8.64209C1.70064 7.48336 2.88139 7.61789 2.92956 7.63102C3.12979 7.68645 3.33768 7.63145 3.48577 7.48336C3.71433 7.2548 3.71433 6.88344 3.48577 6.65488C3.25678 6.42589 3.25678 6.05538 3.48577 5.8264L7.62821 1.68396C9.68404 -0.371867 13.0287 -0.371867 15.0846 1.68396C15.2525 1.85177 15.3027 2.10424 15.2112 2.32349C15.1813 2.39553 15.138 2.459 15.0846 2.51244C14.9766 2.62041 14.8277 2.68436 14.6687 2.684C13.5017 2.68037 12.4034 3.13303 11.5757 3.95831C11.574 3.95987 11.5724 3.96151 11.5708 3.96311C10.7415 4.79245 10.2851 5.89523 10.2851 7.06918V7.31191L7.62817 9.96888L7.3177 9.65841C7.03164 9.37235 6.56785 9.37235 6.28176 9.65841L5.97125 9.96888C5.82516 10.1149 5.76617 10.3285 5.81551 10.5178C5.82867 10.5658 4.99176 12.5944 5 12.6421Z" fill="#FF4081"/>
</svg>
