<svg width="20" height="20" viewBox="0 0 20 20" fill="none" xmlns="http://www.w3.org/2000/svg">
<path d="M19.6641 8.58774L10.6907 0.411288C10.2969 0.0523441 9.70294 0.0523831 9.30923 0.411249L0.33586 8.58778C0.0203532 8.87528 -0.0838652 9.31825 0.0702749 9.71625C0.224454 10.1143 0.599843 10.3714 1.02668 10.3714H2.45988V18.5636C2.45988 18.8884 2.72323 19.1518 3.04804 19.1518H7.96654C8.29134 19.1518 8.5547 18.8884 8.5547 18.5636V13.5896H11.4454V18.5636C11.4454 18.8884 11.7087 19.1518 12.0336 19.1518H16.9518C17.2766 19.1518 17.54 18.8885 17.54 18.5636V10.3714H18.9735C19.4002 10.3714 19.7757 10.1142 19.9299 9.71625C20.0838 9.31821 19.9796 8.87528 19.6641 8.58774Z" fill="#FF4081"/>
</svg>
