<svg width="32" height="32" viewBox="0 0 32 32" fill="none" xmlns="http://www.w3.org/2000/svg">
<path d="M12.3333 0H2.33326C1.04663 0 0 1.04664 0 2.33326V8.33329C0 9.62016 1.04663 10.6668 2.33326 10.6668H12.3333C13.6201 10.6668 14.6668 9.62016 14.6668 8.33329V2.33326C14.6668 1.04664 13.6201 0 12.3333 0Z" fill="white"/>
<path d="M12.3333 13.3331H2.33326C1.04663 13.3331 0 14.3797 0 15.6666V29.6666C0 30.9533 1.04663 31.9999 2.33326 31.9999H12.3333C13.6201 31.9999 14.6668 30.9533 14.6668 29.6666V15.6666C14.6668 14.3797 13.6201 13.3331 12.3333 13.3331Z" fill="white"/>
<path d="M29.6665 21.3333H19.6665C18.3796 21.3333 17.333 22.3799 17.333 23.6668V29.6668C17.333 30.9534 18.3796 32 19.6665 32H29.6665C30.9531 32 31.9998 30.9534 31.9998 29.6668V23.6668C31.9998 22.3799 30.9531 21.3333 29.6665 21.3333Z" fill="white"/>
<path d="M29.6665 0H19.6665C18.3796 0 17.333 1.04664 17.333 2.33326V16.3333C17.333 17.6202 18.3796 18.6668 19.6665 18.6668H29.6665C30.9531 18.6668 31.9998 17.6202 31.9998 16.3333V2.33326C31.9998 1.04664 30.9531 0 29.6665 0Z" fill="white"/>
</svg>
