<svg width="32" height="40" viewBox="0 0 32 40" fill="none" xmlns="http://www.w3.org/2000/svg">
<path d="M3.69231 39.86H28.3077C30.3437 39.86 32 38.2885 32 36.3567V11.6777H23.3846C21.3486 11.6777 19.6923 10.1062 19.6923 8.17441V0H3.69231C1.65629 0 0 1.57151 0 3.50332V36.3567C0 38.2885 1.65629 39.86 3.69231 39.86ZM8.61539 16.4267H23.3846C24.0649 16.4267 24.6154 16.949 24.6154 17.5945C24.6154 18.2399 24.0649 18.7622 23.3846 18.7622H8.61539C7.9351 18.7622 7.38462 18.2399 7.38462 17.5945C7.38462 16.949 7.9351 16.4267 8.61539 16.4267ZM8.61539 21.0978H23.3846C24.0649 21.0978 24.6154 21.6201 24.6154 22.2655C24.6154 22.911 24.0649 23.4333 23.3846 23.4333H8.61539C7.9351 23.4333 7.38462 22.911 7.38462 22.2655C7.38462 21.6201 7.9351 21.0978 8.61539 21.0978ZM8.61539 25.7689H23.3846C24.0649 25.7689 24.6154 26.2912 24.6154 26.9366C24.6154 27.5821 24.0649 28.1044 23.3846 28.1044H8.61539C7.9351 28.1044 7.38462 27.5821 7.38462 26.9366C7.38462 26.2912 7.9351 25.7689 8.61539 25.7689ZM8.61539 30.44H18.4615C19.1418 30.44 19.6923 30.9623 19.6923 31.6077C19.6923 32.2532 19.1418 32.7755 18.4615 32.7755H8.61539C7.9351 32.7755 7.38462 32.2532 7.38462 31.6077C7.38462 30.9623 7.9351 30.44 8.61539 30.44Z" fill="white"/>
<path d="M23.3836 9.34258H31.2778L22.1528 0.684631V8.17481C22.1528 8.81911 22.7045 9.34258 23.3836 9.34258Z" fill="white"/>
</svg>
