<svg width="40" height="36" viewBox="0 0 40 36" fill="none" xmlns="http://www.w3.org/2000/svg">
<path fill-rule="evenodd" clip-rule="evenodd" d="M40 2C40 0.895431 39.1046 0 38 0H22C20.8954 0 20 0.895431 20 2V6.79457L17.302 4.482C16.552 3.84 15.448 3.84 14.698 4.482L8 10.2231V4H4V13.6517L0.698 16.482C0.254 16.862 0 17.416 0 18V34C0 35.106 0.896 36 2 36H28H30H40V2ZM26.073 12L28 13.6517V12H26.073ZM32 24V20H36V24H32ZM32 32V28H36V32H32ZM16 8.634L28 18.92V32H4V18.92L16 8.634ZM24 8H28V4H24V8ZM36 16H32V12H36V16ZM32 8H36V4H32V8Z" fill="white"/>
</svg>
