<svg width="32" height="27" viewBox="0 0 32 27" fill="none" xmlns="http://www.w3.org/2000/svg">
<path d="M27.3805 14.4305H24.9058C25.158 15.1106 25.2958 15.8445 25.2958 16.6094V25.8194C25.2958 26.1383 25.2395 26.4445 25.1369 26.7292H29.2282C30.7565 26.7292 31.9999 25.5048 31.9999 24V18.9792C31.9999 16.4711 29.9277 14.4305 27.3805 14.4305Z" fill="white"/>
<path d="M6.70409 16.6094C6.70409 15.8444 6.8419 15.1106 7.09415 14.4305H4.61939C2.07226 14.4305 0 16.4711 0 18.9792V24C0 25.5049 1.24332 26.7292 2.77164 26.7292H6.86303C6.76046 26.4444 6.70409 26.1384 6.70409 25.8194V16.6094Z" fill="white"/>
<path d="M18.8288 12.0609H13.1712C10.624 12.0609 8.55176 14.1015 8.55176 16.6096V25.8196C8.55176 26.322 8.96538 26.7293 9.47564 26.7293H22.5243C23.0346 26.7293 23.4482 26.322 23.4482 25.8196V16.6096C23.4482 14.1015 21.3759 12.0609 18.8288 12.0609Z" fill="white"/>
<path d="M15.9997 0C12.9365 0 10.4443 2.45399 10.4443 5.47043C10.4443 7.51644 11.5912 9.30336 13.2848 10.2415C14.0881 10.6865 15.0142 10.9408 15.9997 10.9408C16.9852 10.9408 17.9114 10.6865 18.7147 10.2415C20.4084 9.30336 21.5551 7.51638 21.5551 5.47043C21.5551 2.45405 19.063 0 15.9997 0Z" fill="white"/>
<path d="M6.24504 5.09888C3.95409 5.09888 2.09033 6.93411 2.09033 9.18999C2.09033 11.4459 3.95409 13.2811 6.24504 13.2811C6.82616 13.2811 7.37954 13.1626 7.88223 12.9495C8.75136 12.581 9.46799 11.9288 9.91142 11.1118C10.2227 10.5384 10.3997 9.88426 10.3997 9.18999C10.3997 6.93417 8.53598 5.09888 6.24504 5.09888Z" fill="white"/>
<path d="M25.7553 5.09888C23.4643 5.09888 21.6006 6.93411 21.6006 9.18999C21.6006 9.88432 21.7777 10.5385 22.0889 11.1118C22.5323 11.9289 23.249 12.5811 24.1181 12.9495C24.6208 13.1626 25.1742 13.2811 25.7553 13.2811C28.0462 13.2811 29.91 11.4459 29.91 9.18999C29.91 6.93411 28.0462 5.09888 25.7553 5.09888Z" fill="white"/>
</svg>
