<svg width="32" height="32" viewBox="0 0 32 32" fill="none" xmlns="http://www.w3.org/2000/svg">
<path d="M3.66665 0C1.64133 0 0 1.6162 0 3.61053V15.0986H15.3333V0H3.66665ZM9.66663 8.86221H8.3333V10.1751C8.3333 10.7187 7.8853 11.1598 7.3333 11.1598C6.78131 11.1598 6.33331 10.7187 6.33331 10.1751V8.86221H4.99998C4.44798 8.86221 3.99998 8.42107 3.99998 7.87752C3.99998 7.33397 4.44798 6.89283 4.99998 6.89283H6.33331V5.57991C6.33331 5.03636 6.78131 4.59522 7.3333 4.59522C7.8853 4.59522 8.3333 5.03636 8.3333 5.57991V6.89283H9.66663C10.2186 6.89283 10.6666 7.33397 10.6666 7.87752C10.6666 8.42107 10.2186 8.86221 9.66663 8.86221Z" fill="white"/>
<path d="M0 16.4116V27.8997C0 29.894 1.64133 31.5102 3.66665 31.5102H15.3333V16.4116H0ZM10.04 24.9062C10.4306 25.2909 10.4306 25.9145 10.04 26.2992C9.84529 26.4909 9.58929 26.5868 9.33329 26.5868C9.0773 26.5868 8.8213 26.4909 8.62663 26.2979L7.66664 25.3526L6.70664 26.2979C6.51197 26.4896 6.25597 26.5868 5.99998 26.5868C5.74398 26.5868 5.48798 26.4909 5.29331 26.2979C4.90265 25.9132 4.90265 25.2896 5.29331 24.9049L6.25331 23.9596L5.29331 23.0143C4.90265 22.6296 4.90265 22.006 5.29331 21.6213C5.68398 21.2366 6.31731 21.2366 6.70797 21.6213L7.66797 22.5666L8.62796 21.6213C9.01863 21.2366 9.65196 21.2366 10.0426 21.6213C10.4333 22.006 10.4333 22.6296 10.0426 23.0143L9.08263 23.9596L10.04 24.9062Z" fill="white"/>
<path d="M28.3331 0H16.6665V15.0986H31.9998V3.61053C31.9998 1.6162 30.3584 0 28.3331 0ZM27.6665 8.53398H21.6665C21.1145 8.53398 20.6665 8.09284 20.6665 7.54929C20.6665 7.00574 21.1145 6.5646 21.6665 6.5646H27.6665C28.2185 6.5646 28.6665 7.00574 28.6665 7.54929C28.6665 8.09284 28.2185 8.53398 27.6665 8.53398Z" fill="white"/>
<path d="M16.6665 16.4116V31.5102H28.3331C30.3584 31.5102 31.9998 29.894 31.9998 27.8997V16.4116H16.6665ZM27.3331 26.915H21.3332C20.7812 26.915 20.3332 26.4738 20.3332 25.9303C20.3332 25.3867 20.7812 24.9456 21.3332 24.9456H27.3331C27.8851 24.9456 28.3331 25.3867 28.3331 25.9303C28.3331 26.4738 27.8851 26.915 27.3331 26.915ZM27.3331 22.9762H21.3332C20.7812 22.9762 20.3332 22.5351 20.3332 21.9915C20.3332 21.448 20.7812 21.0068 21.3332 21.0068H27.3331C27.8851 21.0068 28.3331 21.448 28.3331 21.9915C28.3331 22.5351 27.8851 22.9762 27.3331 22.9762Z" fill="white"/>
</svg>
