<svg width="32" height="32" viewBox="0 0 32 32" fill="none" xmlns="http://www.w3.org/2000/svg">
<path d="M30.6555 0H23.9328V2.64792H27.4094L22.4558 7.52571C21.3225 6.65753 20.0241 6.0217 18.6372 5.65576C17.2503 5.28981 15.803 5.20117 14.3808 5.39505C12.9585 5.58894 11.5901 6.06143 10.3563 6.78463C9.12253 7.50783 8.04839 8.46708 7.19729 9.60577C6.34618 10.7445 5.73537 12.0395 5.40089 13.4145C5.06642 14.7894 5.01507 16.2164 5.24987 17.6113C5.48467 19.0061 6.00087 20.3405 6.76799 21.5356C7.53511 22.7308 8.5376 23.7625 9.7163 24.5698L8.77025 25.9671L5.85496 24.0537C5.56901 23.866 5.22093 23.7932 4.88221 23.8503C4.54348 23.9075 4.23983 24.0901 4.03361 24.3608L0 29.6567L2.15126 31.2454L5.42168 26.9515L8.39647 28.9043C8.69314 29.0991 9.05622 29.1698 9.40585 29.1009C9.75548 29.0321 10.063 28.8293 10.2608 28.5373L12.1076 25.8107C14.2996 26.6179 16.6992 26.6987 18.942 26.0407C21.1849 25.3827 23.1484 24.0219 24.5343 22.165C25.9202 20.3081 26.6528 18.0566 26.6209 15.7523C26.5889 13.4481 25.7942 11.2171 24.3573 9.39812L29.3109 4.52032V7.94375H32V1.32396C32 0.972823 31.8583 0.636069 31.6062 0.387778C31.354 0.139488 31.0121 0 30.6555 0V0ZM19.8992 13.2396H15.1933C15.015 13.2396 14.844 13.3093 14.7179 13.4335C14.5918 13.5576 14.521 13.726 14.521 13.9016C14.521 14.0771 14.5918 14.2455 14.7179 14.3696C14.844 14.4938 15.015 14.5635 15.1933 14.5635H16.5378C17.3714 14.5627 18.1756 14.8669 18.7942 15.4171C19.4128 15.9672 19.8017 16.7241 19.8855 17.5408C19.9693 18.3575 19.7419 19.1756 19.2475 19.8365C18.7531 20.4974 18.027 20.9538 17.2101 21.1171V22.5073H14.521V21.1833H11.8319V18.5354H16.5378C16.7161 18.5354 16.8871 18.4657 17.0132 18.3415C17.1393 18.2174 17.2101 18.049 17.2101 17.8734C17.2101 17.6979 17.1393 17.5295 17.0132 17.4053C16.8871 17.2812 16.7161 17.2115 16.5378 17.2115H15.1933C14.3597 17.2123 13.5555 16.9081 12.9369 16.3579C12.3183 15.8078 11.9293 15.0509 11.8456 14.2342C11.7618 13.4175 11.9892 12.5993 12.4836 11.9385C12.978 11.2776 13.7041 10.8212 14.521 10.6579V9.26771H17.2101V10.5917H19.8992V13.2396Z" fill="white"/>
</svg>
